<mxfile host="app.diagrams.net" agent="Mozilla/5.0 (Windows NT 10.0; Win64; x64) AppleWebKit/537.36 (KHTML, like Gecko) Chrome/132.0.0.0 Safari/537.36" version="26.1.0">
  <diagram name="Страница — 1" id="Lmm25QguTGW_84BgqQ6a">
    <mxGraphModel dx="819" dy="1595" grid="1" gridSize="10" guides="1" tooltips="1" connect="1" arrows="1" fold="1" page="1" pageScale="1" pageWidth="827" pageHeight="1169" math="0" shadow="0">
      <root>
        <mxCell id="0" />
        <mxCell id="1" parent="0" />
        <mxCell id="PwcIGHLQwaDQoBqi6ZXV-9" value="" style="endArrow=classic;startArrow=classic;html=1;rounded=0;" edge="1" parent="1">
          <mxGeometry width="50" height="50" relative="1" as="geometry">
            <mxPoint x="160" y="115" as="sourcePoint" />
            <mxPoint x="240" y="114.71" as="targetPoint" />
          </mxGeometry>
        </mxCell>
        <mxCell id="PwcIGHLQwaDQoBqi6ZXV-10" value="" style="endArrow=classic;startArrow=classic;html=1;rounded=0;" edge="1" parent="1">
          <mxGeometry width="50" height="50" relative="1" as="geometry">
            <mxPoint x="250" y="114.71" as="sourcePoint" />
            <mxPoint x="460" y="115" as="targetPoint" />
          </mxGeometry>
        </mxCell>
        <mxCell id="PwcIGHLQwaDQoBqi6ZXV-11" value="" style="endArrow=classic;startArrow=classic;html=1;rounded=0;" edge="1" parent="1">
          <mxGeometry width="50" height="50" relative="1" as="geometry">
            <mxPoint x="470" y="114.76" as="sourcePoint" />
            <mxPoint x="560" y="115" as="targetPoint" />
          </mxGeometry>
        </mxCell>
        <mxCell id="PwcIGHLQwaDQoBqi6ZXV-12" value="" style="endArrow=classic;startArrow=classic;html=1;rounded=0;entryX=0;entryY=0.5;entryDx=0;entryDy=0;" edge="1" parent="1">
          <mxGeometry width="50" height="50" relative="1" as="geometry">
            <mxPoint x="40" y="115" as="sourcePoint" />
            <mxPoint x="130" y="115" as="targetPoint" />
          </mxGeometry>
        </mxCell>
        <mxCell id="PwcIGHLQwaDQoBqi6ZXV-13" value="" style="endArrow=classic;startArrow=classic;html=1;rounded=0;" edge="1" parent="1">
          <mxGeometry width="50" height="50" relative="1" as="geometry">
            <mxPoint x="590" y="114.71" as="sourcePoint" />
            <mxPoint x="680" y="115" as="targetPoint" />
          </mxGeometry>
        </mxCell>
        <mxCell id="PwcIGHLQwaDQoBqi6ZXV-15" value="((о))" style="ellipse;whiteSpace=wrap;html=1;aspect=fixed;fillColor=#FCFCFC;" vertex="1" parent="1">
          <mxGeometry x="130" y="100" width="30" height="30" as="geometry" />
        </mxCell>
        <mxCell id="PwcIGHLQwaDQoBqi6ZXV-17" value="" style="ellipse;whiteSpace=wrap;html=1;aspect=fixed;fillColor=#000000;" vertex="1" parent="1">
          <mxGeometry x="240" y="110" width="10" height="10" as="geometry" />
        </mxCell>
        <mxCell id="PwcIGHLQwaDQoBqi6ZXV-18" value="((о))" style="ellipse;whiteSpace=wrap;html=1;aspect=fixed;fillColor=#FFFFFF;" vertex="1" parent="1">
          <mxGeometry x="560" y="100" width="30" height="30" as="geometry" />
        </mxCell>
        <mxCell id="PwcIGHLQwaDQoBqi6ZXV-19" value="" style="ellipse;whiteSpace=wrap;html=1;aspect=fixed;fillColor=#000000;" vertex="1" parent="1">
          <mxGeometry x="240" y="300" width="10" height="10" as="geometry" />
        </mxCell>
        <mxCell id="PwcIGHLQwaDQoBqi6ZXV-20" value="" style="ellipse;whiteSpace=wrap;html=1;aspect=fixed;fillColor=#000000;" vertex="1" parent="1">
          <mxGeometry x="460" y="110" width="10" height="10" as="geometry" />
        </mxCell>
        <mxCell id="PwcIGHLQwaDQoBqi6ZXV-22" value="" style="endArrow=classic;startArrow=classic;html=1;rounded=0;" edge="1" parent="1">
          <mxGeometry width="50" height="50" relative="1" as="geometry">
            <mxPoint x="244.76" y="250" as="sourcePoint" />
            <mxPoint x="244.76" y="299.71000000000004" as="targetPoint" />
          </mxGeometry>
        </mxCell>
        <mxCell id="PwcIGHLQwaDQoBqi6ZXV-23" value="" style="endArrow=classic;startArrow=classic;html=1;rounded=0;" edge="1" parent="1">
          <mxGeometry width="50" height="50" relative="1" as="geometry">
            <mxPoint x="464.76" y="250" as="sourcePoint" />
            <mxPoint x="464.76" y="299.71000000000004" as="targetPoint" />
          </mxGeometry>
        </mxCell>
        <mxCell id="PwcIGHLQwaDQoBqi6ZXV-24" value="" style="endArrow=classic;startArrow=classic;html=1;rounded=0;" edge="1" parent="1">
          <mxGeometry width="50" height="50" relative="1" as="geometry">
            <mxPoint x="244.76" y="120" as="sourcePoint" />
            <mxPoint x="245" y="240" as="targetPoint" />
          </mxGeometry>
        </mxCell>
        <mxCell id="PwcIGHLQwaDQoBqi6ZXV-25" value="" style="ellipse;whiteSpace=wrap;html=1;aspect=fixed;fillColor=#000000;" vertex="1" parent="1">
          <mxGeometry x="460" y="300" width="10" height="10" as="geometry" />
        </mxCell>
        <mxCell id="PwcIGHLQwaDQoBqi6ZXV-26" value="" style="endArrow=classic;startArrow=classic;html=1;rounded=0;" edge="1" parent="1">
          <mxGeometry width="50" height="50" relative="1" as="geometry">
            <mxPoint x="464.76" y="120" as="sourcePoint" />
            <mxPoint x="465" y="240" as="targetPoint" />
          </mxGeometry>
        </mxCell>
        <mxCell id="PwcIGHLQwaDQoBqi6ZXV-27" value="" style="ellipse;whiteSpace=wrap;html=1;aspect=fixed;fillColor=#000000;" vertex="1" parent="1">
          <mxGeometry x="460" y="240" width="10" height="10" as="geometry" />
        </mxCell>
        <mxCell id="PwcIGHLQwaDQoBqi6ZXV-28" value="" style="ellipse;whiteSpace=wrap;html=1;aspect=fixed;fillColor=#000000;" vertex="1" parent="1">
          <mxGeometry x="240" y="240" width="10" height="10" as="geometry" />
        </mxCell>
        <mxCell id="PwcIGHLQwaDQoBqi6ZXV-29" value="" style="endArrow=classic;startArrow=classic;html=1;rounded=0;" edge="1" parent="1">
          <mxGeometry width="50" height="50" relative="1" as="geometry">
            <mxPoint x="244.76" y="310" as="sourcePoint" />
            <mxPoint x="245" y="430" as="targetPoint" />
          </mxGeometry>
        </mxCell>
        <mxCell id="PwcIGHLQwaDQoBqi6ZXV-30" value="" style="endArrow=classic;startArrow=classic;html=1;rounded=0;" edge="1" parent="1" source="PwcIGHLQwaDQoBqi6ZXV-112">
          <mxGeometry width="50" height="50" relative="1" as="geometry">
            <mxPoint x="464.76" y="310" as="sourcePoint" />
            <mxPoint x="465" y="430" as="targetPoint" />
          </mxGeometry>
        </mxCell>
        <mxCell id="PwcIGHLQwaDQoBqi6ZXV-31" value="" style="ellipse;whiteSpace=wrap;html=1;aspect=fixed;fillColor=#000000;" vertex="1" parent="1">
          <mxGeometry x="460" y="430" width="10" height="10" as="geometry" />
        </mxCell>
        <mxCell id="PwcIGHLQwaDQoBqi6ZXV-32" value="" style="ellipse;whiteSpace=wrap;html=1;aspect=fixed;fillColor=#000000;" vertex="1" parent="1">
          <mxGeometry x="240" y="430" width="10" height="10" as="geometry" />
        </mxCell>
        <mxCell id="PwcIGHLQwaDQoBqi6ZXV-47" style="rounded=0;orthogonalLoop=1;jettySize=auto;html=1;exitX=1;exitY=0.5;exitDx=0;exitDy=0;entryX=0;entryY=0.5;entryDx=0;entryDy=0;" edge="1" parent="1" source="PwcIGHLQwaDQoBqi6ZXV-33" target="PwcIGHLQwaDQoBqi6ZXV-40">
          <mxGeometry relative="1" as="geometry" />
        </mxCell>
        <mxCell id="PwcIGHLQwaDQoBqi6ZXV-33" value="" style="ellipse;whiteSpace=wrap;html=1;aspect=fixed;fillColor=#000000;" vertex="1" parent="1">
          <mxGeometry x="240" y="620" width="10" height="10" as="geometry" />
        </mxCell>
        <mxCell id="PwcIGHLQwaDQoBqi6ZXV-34" value="" style="endArrow=classic;startArrow=classic;html=1;rounded=0;" edge="1" parent="1">
          <mxGeometry width="50" height="50" relative="1" as="geometry">
            <mxPoint x="244.76" y="440" as="sourcePoint" />
            <mxPoint x="244.76" y="489.71000000000004" as="targetPoint" />
          </mxGeometry>
        </mxCell>
        <mxCell id="PwcIGHLQwaDQoBqi6ZXV-52" style="edgeStyle=orthogonalEdgeStyle;rounded=0;orthogonalLoop=1;jettySize=auto;html=1;exitX=0.5;exitY=0;exitDx=0;exitDy=0;entryX=0.5;entryY=1;entryDx=0;entryDy=0;" edge="1" parent="1" target="PwcIGHLQwaDQoBqi6ZXV-40">
          <mxGeometry relative="1" as="geometry">
            <mxPoint x="355" y="800" as="sourcePoint" />
          </mxGeometry>
        </mxCell>
        <mxCell id="PwcIGHLQwaDQoBqi6ZXV-36" value="" style="endArrow=classic;startArrow=classic;html=1;rounded=0;" edge="1" parent="1">
          <mxGeometry width="50" height="50" relative="1" as="geometry">
            <mxPoint x="244.76" y="500" as="sourcePoint" />
            <mxPoint x="245" y="620" as="targetPoint" />
          </mxGeometry>
        </mxCell>
        <mxCell id="PwcIGHLQwaDQoBqi6ZXV-37" value="" style="ellipse;whiteSpace=wrap;html=1;aspect=fixed;fillColor=#000000;" vertex="1" parent="1">
          <mxGeometry x="240" y="490" width="10" height="10" as="geometry" />
        </mxCell>
        <mxCell id="PwcIGHLQwaDQoBqi6ZXV-38" value="" style="ellipse;whiteSpace=wrap;html=1;aspect=fixed;fillColor=#000000;" vertex="1" parent="1">
          <mxGeometry x="460" y="490" width="10" height="10" as="geometry" />
        </mxCell>
        <mxCell id="PwcIGHLQwaDQoBqi6ZXV-39" value="" style="endArrow=classic;startArrow=classic;html=1;rounded=0;" edge="1" parent="1">
          <mxGeometry width="50" height="50" relative="1" as="geometry">
            <mxPoint x="464.76" y="440" as="sourcePoint" />
            <mxPoint x="464.76" y="489.71000000000004" as="targetPoint" />
          </mxGeometry>
        </mxCell>
        <mxCell id="PwcIGHLQwaDQoBqi6ZXV-48" style="edgeStyle=orthogonalEdgeStyle;rounded=0;orthogonalLoop=1;jettySize=auto;html=1;exitX=0;exitY=0.5;exitDx=0;exitDy=0;entryX=1;entryY=0.5;entryDx=0;entryDy=0;" edge="1" parent="1" source="PwcIGHLQwaDQoBqi6ZXV-40" target="PwcIGHLQwaDQoBqi6ZXV-33">
          <mxGeometry relative="1" as="geometry" />
        </mxCell>
        <mxCell id="PwcIGHLQwaDQoBqi6ZXV-49" style="edgeStyle=orthogonalEdgeStyle;rounded=0;orthogonalLoop=1;jettySize=auto;html=1;exitX=1;exitY=0.5;exitDx=0;exitDy=0;entryX=0;entryY=0.5;entryDx=0;entryDy=0;" edge="1" parent="1" source="PwcIGHLQwaDQoBqi6ZXV-40" target="PwcIGHLQwaDQoBqi6ZXV-42">
          <mxGeometry relative="1" as="geometry" />
        </mxCell>
        <mxCell id="PwcIGHLQwaDQoBqi6ZXV-51" style="edgeStyle=orthogonalEdgeStyle;rounded=0;orthogonalLoop=1;jettySize=auto;html=1;exitX=0.5;exitY=1;exitDx=0;exitDy=0;entryX=0.5;entryY=0;entryDx=0;entryDy=0;" edge="1" parent="1" source="PwcIGHLQwaDQoBqi6ZXV-53">
          <mxGeometry relative="1" as="geometry">
            <mxPoint x="355" y="800" as="targetPoint" />
          </mxGeometry>
        </mxCell>
        <mxCell id="PwcIGHLQwaDQoBqi6ZXV-40" value="" style="ellipse;whiteSpace=wrap;html=1;aspect=fixed;fillColor=#000000;" vertex="1" parent="1">
          <mxGeometry x="350" y="620" width="10" height="10" as="geometry" />
        </mxCell>
        <mxCell id="PwcIGHLQwaDQoBqi6ZXV-41" value="" style="endArrow=classic;startArrow=classic;html=1;rounded=0;" edge="1" parent="1">
          <mxGeometry width="50" height="50" relative="1" as="geometry">
            <mxPoint x="464.76" y="500" as="sourcePoint" />
            <mxPoint x="465" y="620" as="targetPoint" />
          </mxGeometry>
        </mxCell>
        <mxCell id="PwcIGHLQwaDQoBqi6ZXV-50" style="edgeStyle=orthogonalEdgeStyle;rounded=0;orthogonalLoop=1;jettySize=auto;html=1;exitX=0;exitY=0.5;exitDx=0;exitDy=0;entryX=1;entryY=0.5;entryDx=0;entryDy=0;" edge="1" parent="1" source="PwcIGHLQwaDQoBqi6ZXV-42" target="PwcIGHLQwaDQoBqi6ZXV-40">
          <mxGeometry relative="1" as="geometry" />
        </mxCell>
        <mxCell id="PwcIGHLQwaDQoBqi6ZXV-42" value="" style="ellipse;whiteSpace=wrap;html=1;aspect=fixed;fillColor=#000000;" vertex="1" parent="1">
          <mxGeometry x="460" y="620" width="10" height="10" as="geometry" />
        </mxCell>
        <mxCell id="PwcIGHLQwaDQoBqi6ZXV-54" value="" style="edgeStyle=orthogonalEdgeStyle;rounded=0;orthogonalLoop=1;jettySize=auto;html=1;exitX=0.5;exitY=1;exitDx=0;exitDy=0;entryX=0.5;entryY=0;entryDx=0;entryDy=0;" edge="1" parent="1" source="PwcIGHLQwaDQoBqi6ZXV-40" target="PwcIGHLQwaDQoBqi6ZXV-53">
          <mxGeometry relative="1" as="geometry">
            <mxPoint x="355" y="630" as="sourcePoint" />
            <mxPoint x="355" y="800" as="targetPoint" />
          </mxGeometry>
        </mxCell>
        <mxCell id="PwcIGHLQwaDQoBqi6ZXV-53" value="((о))" style="ellipse;whiteSpace=wrap;html=1;aspect=fixed;fillColor=#FFFFFF;" vertex="1" parent="1">
          <mxGeometry x="340" y="800" width="30" height="30" as="geometry" />
        </mxCell>
        <mxCell id="PwcIGHLQwaDQoBqi6ZXV-56" value="" style="endArrow=none;html=1;rounded=0;" edge="1" parent="1">
          <mxGeometry width="50" height="50" relative="1" as="geometry">
            <mxPoint x="40" y="930" as="sourcePoint" />
            <mxPoint x="680" y="930" as="targetPoint" />
          </mxGeometry>
        </mxCell>
        <mxCell id="PwcIGHLQwaDQoBqi6ZXV-57" value="" style="endArrow=none;html=1;rounded=0;" edge="1" parent="1">
          <mxGeometry width="50" height="50" relative="1" as="geometry">
            <mxPoint x="40" y="-40" as="sourcePoint" />
            <mxPoint x="680" y="-40" as="targetPoint" />
          </mxGeometry>
        </mxCell>
        <mxCell id="PwcIGHLQwaDQoBqi6ZXV-58" value="" style="endArrow=none;html=1;rounded=0;" edge="1" parent="1">
          <mxGeometry width="50" height="50" relative="1" as="geometry">
            <mxPoint x="680" y="-40" as="sourcePoint" />
            <mxPoint x="680" y="930" as="targetPoint" />
          </mxGeometry>
        </mxCell>
        <mxCell id="PwcIGHLQwaDQoBqi6ZXV-59" value="" style="endArrow=none;html=1;rounded=0;" edge="1" parent="1">
          <mxGeometry width="50" height="50" relative="1" as="geometry">
            <mxPoint x="40" y="-40" as="sourcePoint" />
            <mxPoint x="40" y="930" as="targetPoint" />
          </mxGeometry>
        </mxCell>
        <mxCell id="PwcIGHLQwaDQoBqi6ZXV-60" value="" style="endArrow=classic;startArrow=classic;html=1;rounded=0;" edge="1" parent="1">
          <mxGeometry width="50" height="50" relative="1" as="geometry">
            <mxPoint x="354.65999999999997" y="830" as="sourcePoint" />
            <mxPoint x="355" y="930" as="targetPoint" />
          </mxGeometry>
        </mxCell>
        <mxCell id="PwcIGHLQwaDQoBqi6ZXV-61" value="110" style="text;html=1;align=center;verticalAlign=middle;whiteSpace=wrap;rounded=0;" vertex="1" parent="1">
          <mxGeometry x="215" y="180" width="30" height="10" as="geometry" />
        </mxCell>
        <mxCell id="PwcIGHLQwaDQoBqi6ZXV-62" value="110" style="text;html=1;align=center;verticalAlign=middle;whiteSpace=wrap;rounded=0;" vertex="1" parent="1">
          <mxGeometry x="450" y="550" width="60" height="30" as="geometry" />
        </mxCell>
        <mxCell id="PwcIGHLQwaDQoBqi6ZXV-63" value="110" style="text;html=1;align=center;verticalAlign=middle;whiteSpace=wrap;rounded=0;" vertex="1" parent="1">
          <mxGeometry x="200" y="550" width="60" height="30" as="geometry" />
        </mxCell>
        <mxCell id="PwcIGHLQwaDQoBqi6ZXV-64" value="55" style="text;html=1;align=center;verticalAlign=middle;whiteSpace=wrap;rounded=0;" vertex="1" parent="1">
          <mxGeometry x="460" y="330" width="35" height="10" as="geometry" />
        </mxCell>
        <mxCell id="PwcIGHLQwaDQoBqi6ZXV-65" value="110" style="text;html=1;align=center;verticalAlign=middle;whiteSpace=wrap;rounded=0;" vertex="1" parent="1">
          <mxGeometry x="200" y="350" width="60" height="30" as="geometry" />
        </mxCell>
        <mxCell id="PwcIGHLQwaDQoBqi6ZXV-66" value="110" style="text;html=1;align=center;verticalAlign=middle;whiteSpace=wrap;rounded=0;" vertex="1" parent="1">
          <mxGeometry x="450" y="170" width="60" height="30" as="geometry" />
        </mxCell>
        <mxCell id="PwcIGHLQwaDQoBqi6ZXV-67" value="40" style="text;html=1;align=center;verticalAlign=middle;whiteSpace=wrap;rounded=0;" vertex="1" parent="1">
          <mxGeometry x="200" y="260" width="60" height="30" as="geometry" />
        </mxCell>
        <mxCell id="PwcIGHLQwaDQoBqi6ZXV-68" value="40" style="text;html=1;align=center;verticalAlign=middle;whiteSpace=wrap;rounded=0;" vertex="1" parent="1">
          <mxGeometry x="450" y="260" width="60" height="30" as="geometry" />
        </mxCell>
        <mxCell id="PwcIGHLQwaDQoBqi6ZXV-69" value="40" style="text;html=1;align=center;verticalAlign=middle;whiteSpace=wrap;rounded=0;" vertex="1" parent="1">
          <mxGeometry x="200" y="450" width="60" height="30" as="geometry" />
        </mxCell>
        <mxCell id="PwcIGHLQwaDQoBqi6ZXV-70" value="40" style="text;html=1;align=center;verticalAlign=middle;whiteSpace=wrap;rounded=0;" vertex="1" parent="1">
          <mxGeometry x="450" y="450" width="60" height="30" as="geometry" />
        </mxCell>
        <mxCell id="PwcIGHLQwaDQoBqi6ZXV-71" value="73,5" style="text;html=1;align=center;verticalAlign=middle;whiteSpace=wrap;rounded=0;" vertex="1" parent="1">
          <mxGeometry x="325" y="95" width="60" height="20" as="geometry" />
        </mxCell>
        <mxCell id="PwcIGHLQwaDQoBqi6ZXV-72" value="36,75" style="text;html=1;align=center;verticalAlign=middle;whiteSpace=wrap;rounded=0;" vertex="1" parent="1">
          <mxGeometry x="270" y="620" width="60" height="30" as="geometry" />
        </mxCell>
        <mxCell id="PwcIGHLQwaDQoBqi6ZXV-73" value="36,75" style="text;html=1;align=center;verticalAlign=middle;whiteSpace=wrap;rounded=0;" vertex="1" parent="1">
          <mxGeometry x="383.5" y="620" width="60" height="30" as="geometry" />
        </mxCell>
        <mxCell id="PwcIGHLQwaDQoBqi6ZXV-74" value="140" style="text;html=1;align=center;verticalAlign=middle;whiteSpace=wrap;rounded=0;" vertex="1" parent="1">
          <mxGeometry x="340" y="700" width="60" height="30" as="geometry" />
        </mxCell>
        <mxCell id="PwcIGHLQwaDQoBqi6ZXV-75" value="80" style="text;html=1;align=center;verticalAlign=middle;whiteSpace=wrap;rounded=0;" vertex="1" parent="1">
          <mxGeometry x="340" y="870" width="60" height="30" as="geometry" />
        </mxCell>
        <mxCell id="PwcIGHLQwaDQoBqi6ZXV-76" value="153,25" style="text;html=1;align=center;verticalAlign=middle;whiteSpace=wrap;rounded=0;" vertex="1" parent="1">
          <mxGeometry x="170" y="90" width="60" height="30" as="geometry" />
        </mxCell>
        <mxCell id="PwcIGHLQwaDQoBqi6ZXV-77" value="153,25" style="text;html=1;align=center;verticalAlign=middle;whiteSpace=wrap;rounded=0;" vertex="1" parent="1">
          <mxGeometry x="480" y="90" width="60" height="30" as="geometry" />
        </mxCell>
        <mxCell id="PwcIGHLQwaDQoBqi6ZXV-78" value="75" style="text;html=1;align=center;verticalAlign=middle;whiteSpace=wrap;rounded=0;" vertex="1" parent="1">
          <mxGeometry x="610" y="90" width="60" height="30" as="geometry" />
        </mxCell>
        <mxCell id="PwcIGHLQwaDQoBqi6ZXV-79" value="90" style="text;html=1;align=center;verticalAlign=middle;whiteSpace=wrap;rounded=0;" vertex="1" parent="1">
          <mxGeometry x="50" y="90" width="60" height="30" as="geometry" />
        </mxCell>
        <mxCell id="PwcIGHLQwaDQoBqi6ZXV-82" value="AstafievLab09" style="text;html=1;align=center;verticalAlign=middle;whiteSpace=wrap;rounded=0;" vertex="1" parent="1">
          <mxGeometry x="115" y="130" width="60" height="30" as="geometry" />
        </mxCell>
        <mxCell id="PwcIGHLQwaDQoBqi6ZXV-83" value="StaticStand24" style="text;html=1;align=center;verticalAlign=middle;whiteSpace=wrap;rounded=0;" vertex="1" parent="1">
          <mxGeometry x="545" y="130" width="60" height="30" as="geometry" />
        </mxCell>
        <mxCell id="PwcIGHLQwaDQoBqi6ZXV-84" value="StaticStandSlave24" style="text;html=1;align=center;verticalAlign=middle;whiteSpace=wrap;rounded=0;" vertex="1" parent="1">
          <mxGeometry x="400" y="800" width="60" height="30" as="geometry" />
        </mxCell>
        <mxCell id="PwcIGHLQwaDQoBqi6ZXV-85" value="" style="endArrow=classic;startArrow=classic;html=1;rounded=0;exitX=0.5;exitY=0;exitDx=0;exitDy=0;" edge="1" parent="1" source="PwcIGHLQwaDQoBqi6ZXV-17">
          <mxGeometry width="50" height="50" relative="1" as="geometry">
            <mxPoint x="130" y="40" as="sourcePoint" />
            <mxPoint x="245" y="-40" as="targetPoint" />
          </mxGeometry>
        </mxCell>
        <mxCell id="PwcIGHLQwaDQoBqi6ZXV-86" value="240" style="text;html=1;align=center;verticalAlign=middle;whiteSpace=wrap;rounded=0;" vertex="1" parent="1">
          <mxGeometry x="230" y="20" width="60" height="30" as="geometry" />
        </mxCell>
        <mxCell id="PwcIGHLQwaDQoBqi6ZXV-87" value="&lt;font style=&quot;font-size: 9px;&quot;&gt;point 1&lt;/font&gt;" style="text;html=1;align=center;verticalAlign=middle;whiteSpace=wrap;rounded=0;" vertex="1" parent="1">
          <mxGeometry x="435" y="80" width="60" height="30" as="geometry" />
        </mxCell>
        <mxCell id="PwcIGHLQwaDQoBqi6ZXV-88" value="&lt;font style=&quot;font-size: 9px;&quot;&gt;point 2&lt;/font&gt;" style="text;html=1;align=center;verticalAlign=middle;whiteSpace=wrap;rounded=0;" vertex="1" parent="1">
          <mxGeometry x="240" y="80" width="60" height="30" as="geometry" />
        </mxCell>
        <mxCell id="PwcIGHLQwaDQoBqi6ZXV-89" value="&lt;font style=&quot;font-size: 9px;&quot;&gt;point 3&lt;/font&gt;" style="text;html=1;align=center;verticalAlign=middle;whiteSpace=wrap;rounded=0;" vertex="1" parent="1">
          <mxGeometry x="460" y="230" width="60" height="30" as="geometry" />
        </mxCell>
        <mxCell id="PwcIGHLQwaDQoBqi6ZXV-90" value="&lt;font style=&quot;font-size: 9px;&quot;&gt;point 4&lt;/font&gt;" style="text;html=1;align=center;verticalAlign=middle;whiteSpace=wrap;rounded=0;" vertex="1" parent="1">
          <mxGeometry x="190" y="230" width="60" height="30" as="geometry" />
        </mxCell>
        <mxCell id="PwcIGHLQwaDQoBqi6ZXV-91" value="&lt;font style=&quot;font-size: 9px;&quot;&gt;point 5&lt;/font&gt;" style="text;html=1;align=center;verticalAlign=middle;whiteSpace=wrap;rounded=0;" vertex="1" parent="1">
          <mxGeometry x="470" y="290" width="40" height="30" as="geometry" />
        </mxCell>
        <mxCell id="PwcIGHLQwaDQoBqi6ZXV-92" value="&lt;font style=&quot;font-size: 9px;&quot;&gt;point 6&lt;/font&gt;" style="text;html=1;align=center;verticalAlign=middle;whiteSpace=wrap;rounded=0;" vertex="1" parent="1">
          <mxGeometry x="190" y="290" width="60" height="30" as="geometry" />
        </mxCell>
        <mxCell id="PwcIGHLQwaDQoBqi6ZXV-93" value="&lt;font style=&quot;font-size: 9px;&quot;&gt;point 7&lt;/font&gt;" style="text;html=1;align=center;verticalAlign=middle;whiteSpace=wrap;rounded=0;" vertex="1" parent="1">
          <mxGeometry x="460" y="420" width="60" height="30" as="geometry" />
        </mxCell>
        <mxCell id="PwcIGHLQwaDQoBqi6ZXV-94" value="&lt;font style=&quot;font-size: 9px;&quot;&gt;point 8&lt;/font&gt;" style="text;html=1;align=center;verticalAlign=middle;whiteSpace=wrap;rounded=0;" vertex="1" parent="1">
          <mxGeometry x="190" y="420" width="60" height="30" as="geometry" />
        </mxCell>
        <mxCell id="PwcIGHLQwaDQoBqi6ZXV-95" value="&lt;font style=&quot;font-size: 9px;&quot;&gt;point 9&lt;/font&gt;" style="text;html=1;align=center;verticalAlign=middle;whiteSpace=wrap;rounded=0;" vertex="1" parent="1">
          <mxGeometry x="460" y="480" width="60" height="30" as="geometry" />
        </mxCell>
        <mxCell id="PwcIGHLQwaDQoBqi6ZXV-96" value="&lt;font style=&quot;font-size: 9px;&quot;&gt;point 10&lt;/font&gt;" style="text;html=1;align=center;verticalAlign=middle;whiteSpace=wrap;rounded=0;" vertex="1" parent="1">
          <mxGeometry x="190" y="480" width="60" height="30" as="geometry" />
        </mxCell>
        <mxCell id="PwcIGHLQwaDQoBqi6ZXV-97" value="&lt;font style=&quot;font-size: 9px;&quot;&gt;point 11&lt;/font&gt;" style="text;html=1;align=center;verticalAlign=middle;whiteSpace=wrap;rounded=0;" vertex="1" parent="1">
          <mxGeometry x="460" y="610" width="60" height="30" as="geometry" />
        </mxCell>
        <mxCell id="PwcIGHLQwaDQoBqi6ZXV-98" value="&lt;font style=&quot;font-size: 9px;&quot;&gt;point 12&lt;/font&gt;" style="text;html=1;align=center;verticalAlign=middle;whiteSpace=wrap;rounded=0;" vertex="1" parent="1">
          <mxGeometry x="190" y="610" width="60" height="30" as="geometry" />
        </mxCell>
        <mxCell id="PwcIGHLQwaDQoBqi6ZXV-99" value="" style="ellipse;whiteSpace=wrap;html=1;aspect=fixed;fillColor=#000000;" vertex="1" parent="1">
          <mxGeometry x="350" y="170" width="10" height="10" as="geometry" />
        </mxCell>
        <mxCell id="PwcIGHLQwaDQoBqi6ZXV-100" value="&lt;font style=&quot;font-size: 9px;&quot;&gt;point 13&lt;/font&gt;" style="text;html=1;align=center;verticalAlign=middle;whiteSpace=wrap;rounded=0;" vertex="1" parent="1">
          <mxGeometry x="325" y="180" width="60" height="20" as="geometry" />
        </mxCell>
        <mxCell id="PwcIGHLQwaDQoBqi6ZXV-102" value="" style="endArrow=classic;startArrow=classic;html=1;rounded=0;entryX=0;entryY=0.5;entryDx=0;entryDy=0;" edge="1" parent="1" target="PwcIGHLQwaDQoBqi6ZXV-99">
          <mxGeometry width="50" height="50" relative="1" as="geometry">
            <mxPoint x="245" y="175" as="sourcePoint" />
            <mxPoint x="340" y="175" as="targetPoint" />
          </mxGeometry>
        </mxCell>
        <mxCell id="PwcIGHLQwaDQoBqi6ZXV-103" value="" style="endArrow=classic;startArrow=classic;html=1;rounded=0;exitX=1;exitY=0.5;exitDx=0;exitDy=0;" edge="1" parent="1" source="PwcIGHLQwaDQoBqi6ZXV-99">
          <mxGeometry width="50" height="50" relative="1" as="geometry">
            <mxPoint x="365" y="175.12" as="sourcePoint" />
            <mxPoint x="465" y="174.88" as="targetPoint" />
          </mxGeometry>
        </mxCell>
        <mxCell id="PwcIGHLQwaDQoBqi6ZXV-107" value="" style="endArrow=classic;startArrow=classic;html=1;rounded=0;entryX=0.5;entryY=1;entryDx=0;entryDy=0;" edge="1" parent="1" target="PwcIGHLQwaDQoBqi6ZXV-71">
          <mxGeometry width="50" height="50" relative="1" as="geometry">
            <mxPoint x="354.88" y="170" as="sourcePoint" />
            <mxPoint x="355.12" y="120" as="targetPoint" />
          </mxGeometry>
        </mxCell>
        <mxCell id="PwcIGHLQwaDQoBqi6ZXV-108" value="55" style="text;html=1;align=center;verticalAlign=middle;whiteSpace=wrap;rounded=0;" vertex="1" parent="1">
          <mxGeometry x="325" y="135" width="40" height="20" as="geometry" />
        </mxCell>
        <mxCell id="PwcIGHLQwaDQoBqi6ZXV-110" value="36,75" style="text;html=1;align=center;verticalAlign=middle;whiteSpace=wrap;rounded=0;" vertex="1" parent="1">
          <mxGeometry x="270" y="150" width="60" height="30" as="geometry" />
        </mxCell>
        <mxCell id="PwcIGHLQwaDQoBqi6ZXV-111" value="36,75" style="text;html=1;align=center;verticalAlign=middle;whiteSpace=wrap;rounded=0;" vertex="1" parent="1">
          <mxGeometry x="383.5" y="150" width="60" height="30" as="geometry" />
        </mxCell>
        <mxCell id="PwcIGHLQwaDQoBqi6ZXV-113" value="" style="endArrow=classic;startArrow=classic;html=1;rounded=0;" edge="1" parent="1" target="PwcIGHLQwaDQoBqi6ZXV-112">
          <mxGeometry width="50" height="50" relative="1" as="geometry">
            <mxPoint x="464.76" y="310" as="sourcePoint" />
            <mxPoint x="465" y="430" as="targetPoint" />
          </mxGeometry>
        </mxCell>
        <mxCell id="PwcIGHLQwaDQoBqi6ZXV-112" value="" style="ellipse;whiteSpace=wrap;html=1;aspect=fixed;fillColor=#000000;" vertex="1" parent="1">
          <mxGeometry x="460" y="360" width="10" height="10" as="geometry" />
        </mxCell>
        <mxCell id="PwcIGHLQwaDQoBqi6ZXV-114" value="&lt;font style=&quot;font-size: 9px;&quot;&gt;point 14&lt;/font&gt;" style="text;html=1;align=center;verticalAlign=middle;whiteSpace=wrap;rounded=0;" vertex="1" parent="1">
          <mxGeometry x="470" y="350" width="40" height="30" as="geometry" />
        </mxCell>
        <mxCell id="PwcIGHLQwaDQoBqi6ZXV-115" value="55" style="text;html=1;align=center;verticalAlign=middle;whiteSpace=wrap;rounded=0;" vertex="1" parent="1">
          <mxGeometry x="462.5" y="390" width="35" height="10" as="geometry" />
        </mxCell>
      </root>
    </mxGraphModel>
  </diagram>
</mxfile>
